<?xml version="1.0" encoding="utf-8"?>
<!-- Generator: Adobe Illustrator 24.3.0, SVG Export Plug-In . SVG Version: 6.00 Build 0)  -->
<svg version="1.1" id="Layer_1" xmlns="http://www.w3.org/2000/svg" xmlns:xlink="http://www.w3.org/1999/xlink" x="0px" y="0px"
	 viewBox="0 0 246 110" style="enable-background:new 0 0 246 110;" xml:space="preserve">
<style type="text/css">
	.st0{display:none;}
	.st1{display:inline;fill:#211D1E;}
	.st2{display:inline;}
	.st3{fill:#211D1E;}
	.st4{fill:#979899;}
	.st5{display:none;fill:#E81D75;}
	.st6{display:none;fill:#15BFD6;}
	.st7{display:inline;fill:#F89D1D;}
	.st8{clip-path:url(#SVGID_2_);fill:#898A8D;}
	.st9{clip-path:url(#SVGID_2_);fill:#101820;}
	.st10{fill:#101820;}
	.st11{clip-path:url(#SVGID_4_);fill:#101820;}
	.st12{clip-path:url(#SVGID_4_);fill:#C10230;}
	.st13{clip-path:url(#SVGID_4_);fill:#6AAAE4;}
	.st14{clip-path:url(#SVGID_4_);fill:#FED16D;}
	.st15{clip-path:url(#SVGID_6_);fill:#101820;}
</style>
<g class="st0">
	<path class="st1" d="M63,0.4h36.1C112.4,0.2,127,3.6,127,19.7c0,6.9-4.1,12.5-10.2,15.6c8.2,2.4,13.3,9.5,13.3,18.3
		c0,18.4-13.5,24-30,24H63V0.4z M83.1,30.7h15.6c3.5,0,8.2-1.8,8.2-7.3c0-5.6-4-7.5-8.2-7.5H83.1V30.7z M83.1,61.4h16.1
		c6.4,0,10.8-2.3,10.8-8.6c0-6.8-4.8-9.1-10.8-9.1H83.1V61.4z"/>
	<path class="st1" d="M134.1,38.7c0.3-7.3,3.8-12.1,8.7-15c5-2.8,11.4-3.9,17.8-3.9c13.3,0,26.1,2.9,26.1,18.8v24.5
		c0,4.8,0,9.9,2.2,14.4h-18.5c-0.6-1.7-0.9-3.5-1.1-5.3c-4.8,5-11.8,6.9-18.5,6.9c-10.7,0-19.1-5.4-19.1-17
		c0-18.3,19.9-16.8,32.6-19.4c3.1-0.6,4.9-1.7,4.9-5.2c0-4.2-5.1-5.8-8.9-5.8c-5.1,0-8.3,2.3-9.2,7
		C151.1,38.7,134.1,38.7,134.1,38.7z M157.8,67.7c8.7,0,11.7-5,11.2-16.5c-2.6,1.6-7.3,1.9-11.3,3c-4.1,1-7.6,2.7-7.6,7.1
		C150.1,65.9,153.7,67.7,157.8,67.7z"/>
	<path class="st1" d="M217,21.4h18.4v56.1H217V21.4z"/>
</g>
<g class="st0">
	<path class="st1" d="M211.4,2.2c0,0-4.2-2.2-9.2-2.2s-9.3,2.2-9.3,2.2l-0.1,75.4h18.5L211.4,2.2z"/>
</g>
<g class="st0">
	<path class="st1" d="M235.5,2.2c0,0-4.2-2.2-9.3-2.2c-5,0-9.3,2.2-9.3,2.2l-0.1,12h18.5L235.5,2.2z"/>
</g>
<g class="st0">
	<g class="st2">
		<path class="st3" d="M241.9,2.5c2.2,0,4.1,1.7,4.1,4.1c0,2.3-1.9,4.1-4.1,4.1c-2.2,0-4.1-1.8-4.1-4.1
			C237.9,4.2,239.7,2.5,241.9,2.5z M241.9,10c1.9,0,3.3-1.5,3.3-3.5S243.7,3,241.9,3c-1.9,0-3.3,1.5-3.3,3.5
			C238.6,8.5,240.1,10,241.9,10z M240.4,4.2h1.8c1.1,0,1.7,0.4,1.7,1.4c0,0.9-0.5,1.2-1.3,1.3L244,9h-0.8l-1.3-2h-0.8v2h-0.7
			L240.4,4.2L240.4,4.2z M241.1,6.3h0.7c0.6,0,1.3,0,1.3-0.8c0-0.7-0.6-0.7-1.1-0.7h-0.9V6.3z"/>
	</g>
</g>
<g class="st0">
	<g class="st2">
		<path class="st4" d="M2.2,59.1c0,0-2.2,4.2-2.2,9.2s2.2,9.3,2.2,9.3h56.3V59.1H2.2z"/>
	</g>
</g>
<path class="st5" d="M8,31.6c0,0-3.7,3.1-5.6,7.7s-1.5,9.4-1.5,9.4l15,6.2h42.6v-2.4L8,31.6z"/>
<path class="st6" d="M24.4,11.2c0,0-4.6,1.4-8.1,5c-3.5,3.5-5,8.1-5,8.1l7.2,7.2l40,16.6v-2.8L24.4,11.2z"/>
<g class="st0">
	<path class="st7" d="M48.8,0.9c0,0-4.8-0.4-9.4,1.5S31.7,8,31.7,8l3.4,8.1l23.4,23.4V24.1L48.8,0.9z"/>
</g>
<g class="st0">
	<g class="st2">
		<path class="st3" d="M12.4,106.5c-1,2.5-1.8,3.4-3.7,3.4c-0.5,0-1,0-1.4-0.2v-1.9c0.4,0.1,0.8,0.3,1.2,0.3c0.9,0,1.3-0.4,1.7-1.2
			l0.9-2.2L6,92.1h2.4l3.7,10.4l0,0l3.6-10.4h2.2L12.4,106.5z"/>
		<path class="st3" d="M24.9,91.8c4,0,6.2,2.9,6.2,6.7c0,3.7-2.1,6.6-6.2,6.6c-4,0-6.2-2.9-6.2-6.6C18.7,94.7,20.9,91.8,24.9,91.8z
			 M24.9,103.2c2.2,0,4-1.7,4-4.8c0-3.1-1.8-4.8-4-4.8s-4,1.7-4,4.8S22.7,103.2,24.9,103.2z"/>
		<path class="st3" d="M43.7,104.8h-2v-2l0,0c-0.9,1.6-2.3,2.3-4.1,2.3c-3.3,0-4.4-1.9-4.4-4.6v-8.4h2.1v8.6c0,1.5,1,2.6,2.6,2.6
			c2.5,0,3.8-1.7,3.8-4v-7.2h2.1L43.7,104.8L43.7,104.8z"/>
		<path class="st3" d="M46.5,92.1h2v2.7l0,0c1-2,2.4-3,4.7-3V94c-3.4,0-4.6,1.9-4.6,5.1v5.7h-2.1C46.5,104.8,46.5,92.1,46.5,92.1z"
			/>
		<path class="st3" d="M61,87.2h2.1v6.7l0,0c0.7-1.5,2.5-2.2,4-2.2c3.3,0,4.4,1.9,4.4,4.6v8.4h-2.1v-8.6c0-1.5-1-2.6-2.6-2.6
			c-2.5,0-3.8,1.7-3.8,4v7.2h-2V87.2z"/>
		<path class="st3" d="M79.9,91.8c4,0,6.2,2.9,6.2,6.7c0,3.7-2.1,6.6-6.2,6.6s-6.2-2.9-6.2-6.6C73.7,94.7,75.8,91.8,79.9,91.8z
			 M79.9,103.2c2.2,0,4-1.7,4-4.8c0-3.1-1.8-4.8-4-4.8s-4,1.7-4,4.8S77.7,103.2,79.9,103.2z"/>
		<path class="st3" d="M88.2,92.1h2V94l0,0c0.9-1.4,2.4-2.2,4.1-2.2c1.5,0,3,0.6,3.5,2.2c0.9-1.4,2.4-2.2,4-2.2
			c2.5,0,4.2,1.1,4.2,3.7v9.3h-2.1v-8.3c0-1.6-0.4-2.8-2.5-2.8c-2,0-3.3,1.3-3.3,3.2v7.9H96v-8.3c0-1.6-0.5-2.8-2.4-2.8
			c-2.5,0-3.4,2.3-3.4,3.2v7.9h-2.1V92.1H88.2z"/>
		<path class="st3" d="M119.7,100.7c-0.6,2.8-2.6,4.3-5.4,4.3c-4.1,0-6-2.8-6.1-6.7c0-3.8,2.5-6.6,6-6.6c4.5,0,5.9,4.2,5.8,7.3h-9.5
			c-0.1,2.2,1.2,4.2,4,4.2c1.7,0,2.9-0.8,3.3-2.5C117.8,100.7,119.7,100.7,119.7,100.7z M117.7,97.2c-0.1-2-1.6-3.6-3.7-3.6
			c-2.2,0-3.5,1.6-3.6,3.6H117.7z"/>
		<path class="st3" d="M122.2,102h2.7v2.5c0,1.8-0.8,3.3-2.7,3.9v-1.2c1.1-0.4,1.5-1.6,1.4-2.4h-1.5L122.2,102L122.2,102z"/>
		<path class="st3" d="M139.8,106.5c-1,2.5-1.8,3.4-3.7,3.4c-0.5,0-1,0-1.4-0.2v-1.9c0.4,0.1,0.8,0.3,1.2,0.3c0.9,0,1.3-0.4,1.7-1.2
			l0.9-2.2l-5-12.6h2.4l3.7,10.4l0,0l3.6-10.4h2.2L139.8,106.5z"/>
		<path class="st3" d="M152.3,91.8c4,0,6.2,2.9,6.2,6.7c0,3.7-2.1,6.6-6.2,6.6c-4,0-6.2-2.9-6.2-6.6
			C146.1,94.7,148.3,91.8,152.3,91.8z M152.3,103.2c2.2,0,4-1.7,4-4.8c0-3.1-1.8-4.8-4-4.8s-4,1.7-4,4.8
			C148.4,101.5,150.1,103.2,152.3,103.2z"/>
		<path class="st3" d="M171.2,104.8h-2v-2l0,0c-0.9,1.6-2.3,2.3-4.1,2.3c-3.3,0-4.4-1.9-4.4-4.6v-8.4h2.1v8.6c0,1.5,1,2.6,2.6,2.6
			c2.5,0,3.8-1.7,3.8-4v-7.2h2.1v12.7H171.2z"/>
		<path class="st3" d="M173.9,92.1h2v2.7l0,0c1-2,2.4-3,4.7-3V94c-3.4,0-4.6,1.9-4.6,5.1v5.7h-2.1L173.9,92.1L173.9,92.1z"/>
		<path class="st3" d="M189.7,100.8c0.1,1.9,1.7,2.5,3.4,2.5c1.3,0,3.1-0.3,3.1-1.9s-2.1-1.9-4.2-2.4c-2.1-0.5-4.2-1.2-4.2-3.6
			c0-2.6,2.5-3.6,4.7-3.6c2.8,0,5,0.9,5.2,4h-2.1c-0.1-1.6-1.6-2.1-3-2.1c-1.3,0-2.7,0.3-2.7,1.6c0,1.5,2.2,1.7,4.2,2.2
			c2.1,0.5,4.2,1.2,4.2,3.6c0,3-2.8,4-5.4,4c-2.9,0-5.3-1.2-5.4-4.3C187.5,100.8,189.7,100.8,189.7,100.8z"/>
		<path class="st3" d="M203.3,92.1h2.5v1.8h-2.5v7.9c0,1,0.3,1.1,1.6,1.1h1v1.8h-1.6c-2.2,0-3-0.4-3-2.8v-8.1h-2.2V92h2.2v-3.8h2.1
			v3.9H203.3z"/>
		<path class="st3" d="M212.9,106.5c-1,2.5-1.8,3.4-3.7,3.4c-0.5,0-1,0-1.5-0.2v-1.9c0.4,0.1,0.8,0.3,1.2,0.3c0.9,0,1.3-0.4,1.7-1.2
			l0.9-2.2l-5-12.6h2.4l3.7,10.4l0,0l3.6-10.4h2.2L212.9,106.5z"/>
		<path class="st3" d="M220,87.2h2.1v17.6H220V87.2z"/>
		<path class="st3" d="M235.9,100.7c-0.6,2.8-2.6,4.3-5.4,4.3c-4.1,0-6-2.8-6.1-6.7c0-3.8,2.5-6.6,6-6.6c4.5,0,5.9,4.2,5.7,7.3h-9.5
			c-0.1,2.2,1.2,4.2,4,4.2c1.7,0,2.9-0.8,3.3-2.5C233.9,100.7,235.9,100.7,235.9,100.7z M233.9,97.2c-0.1-2-1.6-3.6-3.7-3.6
			c-2.2,0-3.5,1.6-3.6,3.6H233.9z"/>
	</g>
</g>
<g>
	<g>
		<defs>
			<rect id="SVGID_1_" x="0.3" y="0.3" width="244.7" height="109.3"/>
		</defs>
		<clipPath id="SVGID_2_">
			<use xlink:href="#SVGID_1_"  style="overflow:visible;"/>
		</clipPath>
		<path class="st8" d="M2.5,59.1c0,0-2.2,4.2-2.2,9.2c0,5,2.2,9.2,2.2,9.2l56,0V59.1L2.5,59.1z"/>
		<path class="st9" d="M82.9,61.4h16c6.3,0,10.7-2.3,10.7-8.6c0-6.8-4.7-9-10.7-9h-16V61.4z M82.9,30.9h15.5c3.4,0,8.2-1.8,8.2-7.3
			c0-5.6-4-7.4-8.2-7.4H82.9V30.9z M62.9,0.7h35.9c13.2-0.2,27.7,3.2,27.7,19.2c0,6.9-4.1,12.5-10.1,15.5
			c8.2,2.4,13.2,9.5,13.2,18.2c0,18.3-13.4,23.9-29.9,23.9H62.9V0.7z"/>
		<path class="st9" d="M157.3,67.7c8.7,0,11.6-4.9,11.2-16.4c-2.6,1.6-7.3,1.9-11.3,3c-4.1,1-7.5,2.7-7.5,7.1
			C149.6,65.9,153.2,67.7,157.3,67.7 M133.6,38.8c0.3-7.3,3.8-12,8.7-14.9c4.9-2.8,11.4-3.9,17.7-3.9c13.2,0,26,2.9,26,18.7v24.4
			c0,4.7,0,9.9,2.1,14.3h-18.4c-0.6-1.7-0.9-3.4-1.1-5.3C164,77.1,157,79,150.4,79c-10.6,0-19-5.4-19-16.9
			c0-18.2,19.8-16.8,32.4-19.3c3.1-0.6,4.8-1.7,4.8-5.2c0-4.2-5-5.8-8.8-5.8c-5,0-8.3,2.3-9.1,7H133.6z"/>
	</g>
	<rect x="216.1" y="21.6" class="st10" width="18.3" height="55.8"/>
	<g>
		<defs>
			<rect id="SVGID_3_" x="0.3" y="0.3" width="244.7" height="109.3"/>
		</defs>
		<clipPath id="SVGID_4_">
			<use xlink:href="#SVGID_3_"  style="overflow:visible;"/>
		</clipPath>
		<path class="st11" d="M210.5,2.5c0,0-4.2-2.2-9.2-2.2c-5,0-9.2,2.2-9.2,2.2L192,77.6h18.4L210.5,2.5z"/>
		<path class="st11" d="M234.5,2.5c0,0-4.2-2.2-9.2-2.2c-5,0-9.2,2.2-9.2,2.2l-0.1,12h18.4L234.5,2.5z"/>
		<path class="st11" d="M240.1,6.5h0.7c0.6,0,1.3,0,1.3-0.8c0-0.7-0.6-0.7-1.1-0.7h-0.9V6.5z M239.4,4.4h1.8c1.1,0,1.6,0.4,1.6,1.3
			c0,0.9-0.5,1.2-1.3,1.3l1.4,2.1h-0.8l-1.3-2h-0.8v2h-0.7V4.4z M241,10.3c1.8,0,3.3-1.5,3.3-3.4c0-2-1.5-3.5-3.3-3.5
			c-1.9,0-3.3,1.5-3.3,3.5C237.6,8.8,239.1,10.3,241,10.3 M241,2.8c2.2,0,4,1.7,4,4c0,2.3-1.8,4-4,4c-2.2,0-4-1.7-4-4
			C236.9,4.5,238.8,2.8,241,2.8"/>
		<path class="st12" d="M8.2,31.8c0,0-3.7,3-5.6,7.7c-1.9,4.6-1.5,9.4-1.5,9.4L16,55l42.4,0v-2.4L8.2,31.8z"/>
		<path class="st13" d="M24.5,11.4c0,0-4.5,1.4-8.1,4.9c-3.5,3.5-5,8.1-5,8.1l7.2,7.2l39.8,16.5v-2.7L24.5,11.4z"/>
		<path class="st14" d="M48.9,1.2c0,0-4.7-0.4-9.4,1.5c-4.6,1.9-7.7,5.5-7.7,5.5l3.3,8.1l23.2,23.3V24.3L48.9,1.2z"/>
		<path class="st11" d="M12.6,106.2c-1,2.5-1.8,3.4-3.7,3.4c-0.5,0-1,0-1.4-0.2v-1.9c0.4,0.1,0.8,0.3,1.2,0.3c0.9,0,1.3-0.4,1.7-1.2
			l0.9-2.2l-5-12.6h2.3l3.7,10.3h0l3.5-10.3h2.2L12.6,106.2z"/>
		<path class="st11" d="M25,103c2.2,0,3.9-1.7,3.9-4.8c0-3.1-1.8-4.8-3.9-4.8c-2.2,0-3.9,1.7-3.9,4.8C21.1,101.3,22.8,103,25,103
			 M25,91.6c4,0,6.1,2.9,6.1,6.6c0,3.7-2.1,6.6-6.1,6.6c-4,0-6.1-2.9-6.1-6.6C18.9,94.5,21,91.6,25,91.6"/>
		<path class="st11" d="M43.8,104.5h-2v-2h0c-0.9,1.6-2.3,2.3-4.1,2.3c-3.3,0-4.4-1.9-4.4-4.6v-8.3h2.1v8.6c0,1.5,1,2.5,2.6,2.5
			c2.5,0,3.7-1.7,3.7-4v-7.1h2.1V104.5z"/>
		<path class="st11" d="M46.5,91.9h2v2.7h0c1-2,2.4-3,4.6-3v2.2c-3.3,0-4.6,1.9-4.6,5.1v5.6h-2.1V91.9z"/>
		<path class="st11" d="M61,87.1H63v6.7h0c0.7-1.5,2.5-2.2,4-2.2c3.3,0,4.4,1.9,4.4,4.6v8.3h-2.1V96c0-1.5-1-2.5-2.6-2.5
			c-2.5,0-3.7,1.7-3.7,4v7.1H61V87.1z"/>
		<path class="st11" d="M79.7,103c2.2,0,3.9-1.7,3.9-4.8c0-3.1-1.8-4.8-3.9-4.8s-3.9,1.7-3.9,4.8C75.8,101.3,77.5,103,79.7,103
			 M79.7,91.6c4,0,6.1,2.9,6.1,6.6c0,3.7-2.1,6.6-6.1,6.6s-6.1-2.9-6.1-6.6C73.6,94.5,75.7,91.6,79.7,91.6"/>
		<path class="st11" d="M88,91.9h2v1.9h0c0.9-1.4,2.3-2.2,4.1-2.2c1.5,0,3,0.6,3.5,2.2c0.9-1.3,2.4-2.2,4-2.2c2.5,0,4.2,1,4.2,3.7
			v9.3h-2.1v-8.3c0-1.6-0.4-2.8-2.4-2.8c-2,0-3.3,1.3-3.3,3.2v7.9h-2.1v-8.3c0-1.6-0.5-2.8-2.4-2.8c-2.5,0-3.4,2.3-3.4,3.2v7.9H88
			V91.9z"/>
		<path class="st11" d="M117.3,97c-0.1-2-1.6-3.6-3.6-3.6c-2.2,0-3.5,1.6-3.6,3.6H117.3z M119.3,100.5c-0.6,2.8-2.6,4.3-5.4,4.3
			c-4,0-5.9-2.8-6.1-6.7c0-3.8,2.5-6.6,5.9-6.6c4.5,0,5.8,4.2,5.7,7.2h-9.5c-0.1,2.2,1.2,4.2,3.9,4.2c1.7,0,2.9-0.8,3.3-2.5H119.3z"
			/>
		<path class="st11" d="M121.9,101.8h2.7v2.5c0,1.8-0.8,3.3-2.7,3.8v-1.2c1.1-0.4,1.5-1.6,1.4-2.4h-1.4V101.8z"/>
		<path class="st11" d="M139.4,106.2c-1,2.5-1.8,3.4-3.7,3.4c-0.5,0-1,0-1.4-0.2v-1.9c0.4,0.1,0.8,0.3,1.2,0.3
			c0.9,0,1.3-0.4,1.7-1.2l0.9-2.2l-5-12.6h2.3l3.7,10.3h0l3.5-10.3h2.2L139.4,106.2z"/>
		<path class="st11" d="M151.8,103c2.2,0,3.9-1.7,3.9-4.8c0-3.1-1.8-4.8-3.9-4.8c-2.2,0-3.9,1.7-3.9,4.8
			C147.9,101.3,149.6,103,151.8,103 M151.8,91.6c4,0,6.1,2.9,6.1,6.6c0,3.7-2.1,6.6-6.1,6.6c-4,0-6.1-2.9-6.1-6.6
			C145.7,94.5,147.8,91.6,151.8,91.6"/>
		<path class="st11" d="M170.5,104.5h-2v-2h0c-0.9,1.6-2.3,2.3-4.1,2.3c-3.3,0-4.4-1.9-4.4-4.6v-8.3h2.1v8.6c0,1.5,1,2.5,2.6,2.5
			c2.5,0,3.7-1.7,3.7-4v-7.1h2.1V104.5z"/>
		<path class="st11" d="M173.3,91.9h2v2.7h0c1-2,2.4-3,4.6-3v2.2c-3.4,0-4.6,1.9-4.6,5.1v5.6h-2.1V91.9z"/>
		<path class="st11" d="M189,100.6c0.1,1.9,1.7,2.4,3.4,2.4c1.3,0,3.1-0.3,3.1-1.9c0-1.6-2.1-1.9-4.1-2.3c-2.1-0.5-4.1-1.1-4.1-3.6
			c0-2.5,2.5-3.6,4.7-3.6c2.8,0,5,0.9,5.2,4H195c-0.1-1.6-1.6-2.1-2.9-2.1c-1.2,0-2.7,0.3-2.7,1.6c0,1.5,2.2,1.7,4.1,2.2
			c2.1,0.5,4.1,1.1,4.1,3.6c0,3-2.8,4-5.4,4c-2.8,0-5.2-1.1-5.4-4.3H189z"/>
		<path class="st11" d="M202.5,91.9h2.5v1.8h-2.5v7.9c0,1,0.3,1.1,1.6,1.1h1v1.8h-1.6c-2.2,0-3-0.4-3-2.8v-8h-2.2v-1.8h2.2v-3.8h2.1
			V91.9z"/>
		<path class="st11" d="M212,106.2c-1,2.5-1.8,3.4-3.7,3.4c-0.5,0-1,0-1.4-0.2v-1.9c0.4,0.1,0.8,0.3,1.2,0.3c0.9,0,1.3-0.4,1.7-1.2
			l0.9-2.2l-5-12.6h2.3l3.7,10.3h0l3.5-10.3h2.2L212,106.2z"/>
	</g>
	<rect x="219.1" y="87.1" class="st10" width="2.1" height="17.5"/>
	<g>
		<defs>
			<rect id="SVGID_5_" x="0.3" y="0.3" width="244.7" height="109.3"/>
		</defs>
		<clipPath id="SVGID_6_">
			<use xlink:href="#SVGID_5_"  style="overflow:visible;"/>
		</clipPath>
		<path class="st15" d="M232.9,97c-0.1-2-1.6-3.6-3.6-3.6c-2.2,0-3.5,1.6-3.6,3.6H232.9z M234.9,100.5c-0.6,2.8-2.6,4.3-5.4,4.3
			c-4,0-5.9-2.8-6.1-6.7c0-3.8,2.5-6.6,5.9-6.6c4.5,0,5.8,4.2,5.7,7.2h-9.5c-0.1,2.2,1.2,4.2,3.9,4.2c1.7,0,2.9-0.8,3.3-2.5H234.9z"
			/>
	</g>
</g>
</svg>
