<?xml version="1.0" encoding="utf-8"?>
<!-- Generator: Adobe Illustrator 26.0.1, SVG Export Plug-In . SVG Version: 6.00 Build 0)  -->
<svg version="1.1" id="Layer_1" xmlns="http://www.w3.org/2000/svg" xmlns:xlink="http://www.w3.org/1999/xlink" x="0px" y="0px"
	 viewBox="0 0 286.9 29.9" enable-background="new 0 0 286.9 29.9" xml:space="preserve">
<g>
	<path fill="#121820" d="M183.3,2.3c3.1,0,4.8,1.7,4.8,4.7c0,3.4-1.6,4.9-5.1,4.9h-2.9V2.3H183.3z M182,3.9v6.4h1.3
		c2,0,2.9-1,2.9-3.1c0-2-0.9-3.1-2.9-3.1L182,3.9L182,3.9z"/>
	<path fill="#121820" d="M191.5,2.3h6.4v1.6h-4.6v2.3h4.1v1.6h-4.1v2.4h4.6v1.6h-6.5L191.5,2.3L191.5,2.3z"/>
	<path fill="#121820" d="M203.1,2.3v7.9h4.2v1.6h-6V2.3H203.1z"/>
	<path fill="#121820" d="M210.5,2.3h1.8v9.5h-1.8V2.3z"/>
	<path fill="#121820" d="M220.5,6.8h3.4v3.8c-1.1,1.2-2.6,1.4-3.7,1.4c-3.4,0-4.5-2.3-4.5-5c0-2.9,1.4-5,4.4-5
		c2.7,0,3.6,1.4,3.7,3.1h-1.9c-0.1-0.9-0.6-1.4-1.8-1.4c-1.6,0-2.5,1.3-2.5,3.2c0,2.1,0.8,3.3,2.7,3.3c0.7,0,1.3-0.2,1.8-0.6V8.3
		h-1.7L220.5,6.8L220.5,6.8z"/>
	<path fill="#121820" d="M227.5,2.3h1.8v3.9h3.9V2.3h1.8v9.5h-1.8v-4h-3.9v4h-1.8V2.3z"/>
	<path fill="#121820" d="M241,3.9h-2.9V2.3h7.5v1.6h-2.9v7.9H241V3.9z"/>
	<path fill="#121820" d="M253.1,2.3h1.8v9.5h-1.8V2.3z"/>
	<path fill="#121820" d="M258.7,2.3h1.6l4.3,6.5V2.3h1.8v9.5h-1.6l-4.3-6.4v6.4h-1.8V2.3z"/>
	<path fill="#121820" d="M180.1,18.3h6.4v1.6H182v2.3h4.1v1.6H182v2.4h4.6v1.6H180L180.1,18.3L180.1,18.3z"/>
	<path fill="#121820" d="M189.1,18.3h1.9l2.2,7.4l2.2-7.4h1.9l-3.1,9.5h-2.1L189.1,18.3z"/>
	<path fill="#121820" d="M200.3,18.3h6.4v1.6h-4.6v2.3h4.1v1.6h-4.1v2.4h4.6v1.6h-6.5L200.3,18.3L200.3,18.3z"/>
	<path fill="#121820" d="M213.5,18.3c2.4,0,3.5,1.1,3.5,3c0,1.2-0.5,2.1-1.5,2.7l2,3.9h-2l-1.8-3.5c-0.3,0-0.6,0.1-0.9,0.1h-1v3.4
		H210v-9.5H213.5z M211.9,19.8v3.1h1.4c1.2,0,1.8-0.6,1.8-1.5s-0.6-1.5-1.7-1.5H211.9z"/>
	<path fill="#121820" d="M222.2,24l-3.1-5.7h2l2.1,3.9l2-3.9h2.1L224,24v3.8h-1.8V24z"/>
	<path fill="#121820" d="M237.8,18.3c3.1,0,4.8,1.7,4.8,4.7c0,3.4-1.6,4.9-5.1,4.9h-2.9v-9.5H237.8z M236.4,19.9v6.4h1.3
		c2,0,2.9-1,2.9-3.1c0-2-0.9-3.1-2.9-3.1L236.4,19.9L236.4,19.9z"/>
	<path fill="#121820" d="M246,18.3h6.4v1.6h-4.6v2.3h4.1v1.6h-4.1v2.4h4.6v1.6h-6.5L246,18.3L246,18.3z"/>
	<path fill="#121820" d="M257.9,19.9H255v-1.6h7.5v1.6h-2.9v7.9h-1.8V19.9z"/>
	<path fill="#121820" d="M268.9,18.3l3.4,9.5h-2l-0.7-2.2h-3.3l-0.7,2.2h-2l3.4-9.5H268.9z M269.2,24.1l-1.2-3.7l-1.1,3.7H269.2z"/>
	<path fill="#121820" d="M275.4,18.3h1.8v9.5h-1.8V18.3z"/>
	<path fill="#121820" d="M282.7,18.3v7.9h4.2v1.6h-6v-9.5H282.7z"/>
</g>
<g>
	<path fill="#121820" d="M23.4,17.6v5.9c0,0.8,0.4,1.4,0.6,1.5c-3,1.7-7.9,2.7-10.7,2.7C6.2,27.7,0,22.9,0,15.4C0,9.3,4.6,3,13.7,3
		c3,0,5.5,0.7,8.4,1.9c0,0,0.3,5.4,0.3,5.5c-1.8-5-6.5-5.7-8.2-5.7C7.8,4.7,4.3,9.2,4.3,15c0,5,2.6,11.1,9.9,11.1
		c1,0,3.3-0.1,5.3-1.4v-6.8h-3.8v-0.1c0-0.8-0.4-1.2-1-1.6h9.6C23.8,16.3,23.4,16.8,23.4,17.6z"/>
	<path fill="#121820" d="M67.6,27.4c0.7-0.4,1-0.7,1-1.1c0-0.2,0-0.4-0.1-0.6c-0.2-0.4-1.5-3.5-2.6-6.1h-8c-1,2.6-2.4,5.7-2.5,6.1
		c-0.1,0.3-0.1,0.5-0.1,0.7c0,0.5,0.3,0.8,1,1h-4.8c1-0.7,1.3-1,1.6-1.7C53.8,24.2,63,2.6,63,2.6s9.4,21.7,9.9,23.1
		c0.4,0.8,0.6,1.1,1.8,1.7H67.6z M65.3,17.7C63.5,13.5,62,9.8,62,9.8s-1.9,4.7-3.2,7.9"/>
	<path fill="#121820" d="M86.4,27.4h-8.2c0.6-0.3,1-0.9,1-1.6v-21c0-0.9-0.4-1.3-1-1.6h7.3c2.4,0,8.2,0.8,8.2,5.5
		c0,4.3-4.9,5.6-4.9,5.6s7.1,0.5,7.1,6.3C95.9,23.5,93.9,27.4,86.4,27.4z M89.9,9.1c0-2.8-2.2-4.3-4.7-4.3c-1.2,0-2.1,0.1-2.1,0.1
		v8.9c0,0,0.7,0.1,1.3,0.1C86.3,13.7,89.9,13.2,89.9,9.1z M85.6,15.4c-1,0-2.5,0.1-2.5,0.1v10.2c0,0,0.6,0.1,1.4,0.1
		c2.6,0,7.2-0.7,7.2-5.4C91.6,16.4,88.5,15.4,85.6,15.4z"/>
	<path fill="#121820" d="M115.9,27.4h-14.8c0.7-0.3,1.1-0.8,1.1-1.6v-21c0-0.9-0.5-1.3-1.1-1.6h13.8l0.1,3c-0.7-0.9-1.4-1.2-2.9-1.2
		c-0.9,0-6.1-0.1-6.1-0.1v9.4h5.5c0.5,0,1-0.6,1.2-1V17c-0.2-0.5-0.8-1-1.2-1h-5.5v9.4c0.7,0.1,2.3,0.2,3.9,0.2c0.2,0,0.3,0,0.5,0
		c3.4-0.1,4.9,0,6.2-2.3L115.9,27.4z"/>
	<path fill="#121820" d="M139,27.4c-1.4,0-2.5-0.9-3.1-1.6c-1.7-2.5-3.1-4.9-4.4-6.8c-1-1.4-1.7-3-3.4-3c-0.6,0-1.8,0-1.8,0v9.7
		c0,0.8,0.4,1.2,1,1.6h-5.8c0.6-0.3,1-0.9,1-1.6v-21c0-0.9-0.4-1.3-1-1.6h7.2c7.3,0,8.9,3.6,8.9,5.9c0,3.8-3.6,6-6,6
		c2.2,0.2,3.1,1.9,3.5,2.7c0,0,4,6.6,5.4,8.2c0.8,0.9,2.3,1.4,2.3,1.4H139z M128.7,4.8c-1.3,0-2.4,0.1-2.4,0.1v9.5
		c0,0,1,0.1,1.8,0.1c2.6,0,5.2-1.5,5.2-5.1C133.4,7.7,132.3,4.8,128.7,4.8z"/>
	<path fill="#121820" d="M47.3,27.4c-1.4,0-2.5-0.9-3.1-1.6c-1.7-2.5-3.1-4.9-4.4-6.8c-1-1.4-1.7-3-3.4-3c-0.6,0-1.8,0-1.8,0v9.7
		c0,0.8,0.4,1.2,1,1.6h-5.8c0.6-0.3,1-0.9,1-1.6v-21c0-0.9-0.4-1.3-1-1.6h7.2c7.3,0,8.9,3.6,8.9,5.9c0,3.8-3.6,6-6,6
		c2.2,0.2,3.1,1.9,3.5,2.7c0,0,4,6.6,5.4,8.2c0.8,0.9,2.3,1.4,2.3,1.4H47.3z M37.1,4.8c-1.3,0-2.4,0.1-2.4,0.1v9.5
		c0,0,1,0.1,1.8,0.1c2.6,0,5.2-1.5,5.2-5.1C41.7,7.7,40.7,4.8,37.1,4.8z"/>
	<path fill="#121820" d="M145.2,26.8c-1,0-1.7-0.8-1.7-1.7s0.8-1.7,1.7-1.7c1,0,1.7,0.8,1.7,1.7C146.9,26.1,146.2,26.8,145.2,26.8z
		 M145.2,23.7c-0.8,0-1.4,0.6-1.4,1.4c0,0.8,0.6,1.4,1.4,1.4c0.8,0,1.4-0.6,1.4-1.4C146.6,24.3,146,23.7,145.2,23.7z M145.6,25.3
		L146,26h-0.5l-0.4-0.7h-0.3V26h-0.4v-1.9h0.9c0.4,0,0.7,0.2,0.7,0.6C146,25.1,145.8,25.2,145.6,25.3z M145.3,24.5h-0.5V25h0.5
		c0.2,0,0.3-0.1,0.3-0.3C145.6,24.6,145.5,24.5,145.3,24.5z"/>
</g>
<path fill="#121820" d="M161.1,0h1.2v29.9h-1.2V0z"/>
</svg>
